<svg xmlns="http://www.w3.org/2000/svg" width="1200" height="630" viewBox="0 0 1200 630" role="img" aria-labelledby="title desc">
  <title id="title">Lleva Lleva clasificados gratis en Colombia</title>
  <desc id="desc">Brand preview card for Lleva Lleva with marketplace categories and Colombia-focused classifieds messaging.</desc>
  <rect width="1200" height="630" fill="#0f172a"/>
  <rect x="70" y="70" width="1060" height="490" rx="28" fill="#ffffff"/>
  <rect x="70" y="70" width="1060" height="130" rx="28" fill="#f59e0b"/>
  <path d="M70 170H1130V210H70Z" fill="#f59e0b"/>
  <text x="110" y="150" font-family="Inter, Arial, sans-serif" font-size="58" font-weight="900" fill="#0f172a">Lleva</text>
  <text x="284" y="150" font-family="Inter, Arial, sans-serif" font-size="58" font-weight="900" fill="#ffffff">Lleva</text>
  <text x="110" y="286" font-family="Inter, Arial, sans-serif" font-size="54" font-weight="800" fill="#0f172a">Clasificados gratis en Colombia</text>
  <text x="110" y="348" font-family="Inter, Arial, sans-serif" font-size="30" font-weight="500" fill="#334155">Compra, vende e intercambia en tu ciudad.</text>
  <g font-family="Inter, Arial, sans-serif" font-size="25" font-weight="700">
    <rect x="110" y="410" width="170" height="64" rx="18" fill="#ecfdf5" stroke="#a7f3d0" stroke-width="2"/>
    <text x="142" y="452" fill="#047857">Servicios</text>
    <rect x="310" y="410" width="170" height="64" rx="18" fill="#fffbeb" stroke="#fde68a" stroke-width="2"/>
    <text x="342" y="452" fill="#92400e">Vivienda</text>
    <rect x="510" y="410" width="170" height="64" rx="18" fill="#f8fafc" stroke="#cbd5e1" stroke-width="2"/>
    <text x="544" y="452" fill="#334155">Empleos</text>
    <rect x="710" y="410" width="210" height="64" rx="18" fill="#ecfdf5" stroke="#a7f3d0" stroke-width="2"/>
    <text x="744" y="452" fill="#047857">Compra/Venta</text>
  </g>
  <rect x="975" y="248" width="96" height="96" rx="28" fill="#f59e0b"/>
  <path d="M1005 298h36m-18-18v36" stroke="#0f172a" stroke-width="11" stroke-linecap="round"/>
  <text x="975" y="386" font-family="Inter, Arial, sans-serif" font-size="24" font-weight="700" fill="#475569">Local, simple y seguro</text>
</svg>
